<svg width="261" height="204" viewBox="0 0 261 204" fill="none" xmlns="http://www.w3.org/2000/svg">
<circle opacity="0.1" cx="136.284" cy="102.5" r="101.5" fill="white"/>
<path d="M246.908 152.26C238.512 140.57 200.645 130.027 154.766 127.405C108.886 124.783 70.0317 130.956 60.3729 141.553L58.3424 141.444L58.068 146.306C58.068 146.36 58.068 146.415 58.068 146.469C57.2997 160.071 99.3374 173.509 151.967 176.513C204.596 179.518 247.896 170.996 248.719 157.395H248.884L249.104 152.369L246.908 152.26Z" fill="#CEDCE0"/>
<path fill-rule="evenodd" clip-rule="evenodd" d="M155.065 122.524C207.714 125.572 249.756 139.055 248.97 152.638C248.183 166.222 204.865 174.762 152.217 171.714C99.5677 168.665 57.525 155.182 58.3115 141.599C59.098 128.016 102.416 119.475 155.065 122.524C207.714 125.572 155.065 122.524 155.065 122.524Z" fill="white"/>
<g opacity="0.5">
<path fill-rule="evenodd" clip-rule="evenodd" d="M154.158 137.733C177.365 139.076 195.898 145.024 195.551 151.018C195.204 157.012 176.109 160.781 152.901 159.437C129.693 158.094 111.161 152.145 111.508 146.152C111.855 140.158 130.95 136.389 154.158 137.733C177.365 139.076 154.158 137.733 154.158 137.733Z" fill="#CFD3D6"/>
</g>
<path fill-rule="evenodd" clip-rule="evenodd" d="M127.93 135.216H125.625V138.767C125.625 140.351 125.186 141.553 124.308 142.372C123.43 143.192 122.277 143.629 120.85 143.629C119.423 143.629 118.271 143.192 117.393 142.372C116.515 141.553 116.076 140.351 116.076 138.767V135.216H100.819C99.5021 135.216 98.5143 134.834 97.746 134.069C96.9777 133.304 96.5935 132.321 96.5935 131.174C96.5935 130.027 96.9777 128.825 97.8009 127.678L116.515 101.076C117.009 100.366 117.667 99.8193 118.381 99.4916C119.149 99.1638 119.917 98.9453 120.74 98.9453C122.058 98.9453 123.155 99.3823 124.143 100.202C125.131 101.076 125.57 102.223 125.57 103.752V127.787H127.875C131.003 127.787 132.54 128.989 132.54 131.447C132.54 133.96 131.003 135.216 127.93 135.216ZM116.076 114.022L106.472 127.787H116.076V114.022Z" fill="#4D4D4D"/>
<path fill-rule="evenodd" clip-rule="evenodd" d="M137.204 121.233C137.204 113.968 138.631 108.341 141.43 104.463C144.229 100.585 148.345 98.6729 153.723 98.6729C159.101 98.6729 163.162 100.585 166.016 104.463C168.815 108.341 170.242 113.913 170.242 121.233C170.242 128.553 168.815 134.179 166.016 138.058C163.217 141.936 159.101 143.848 153.723 143.848C148.345 143.848 144.229 141.936 141.43 138.058C138.631 134.179 137.204 128.553 137.204 121.233ZM160.638 121.178C160.638 115.825 160.089 112.001 158.992 109.598C157.894 107.249 156.138 106.047 153.668 106.047C151.253 106.047 149.497 107.249 148.345 109.652C147.247 112.056 146.698 115.88 146.698 121.178C146.698 126.477 147.247 130.301 148.345 132.759C149.442 135.162 151.199 136.364 153.668 136.364C156.083 136.419 157.894 135.217 158.992 132.759C160.089 130.355 160.638 126.477 160.638 121.178Z" fill="#4D4D4D"/>
<path fill-rule="evenodd" clip-rule="evenodd" d="M207.011 135.216H204.706V138.767C204.706 140.351 204.267 141.553 203.389 142.372C202.511 143.192 201.359 143.629 199.932 143.629C198.505 143.629 197.352 143.192 196.474 142.372C195.596 141.553 195.157 140.351 195.157 138.767V135.216H179.901C178.584 135.216 177.596 134.834 176.828 134.069C176.059 133.304 175.675 132.321 175.675 131.174C175.675 130.027 176.059 128.825 176.882 127.678L195.596 101.076C196.09 100.366 196.749 99.8193 197.462 99.4916C198.231 99.1638 198.999 98.9453 199.822 98.9453C201.139 98.9453 202.237 99.3823 203.225 100.202C204.212 101.076 204.651 102.223 204.651 103.752V127.787H206.956C210.084 127.787 211.621 128.989 211.621 131.447C211.621 133.96 210.084 135.216 207.011 135.216ZM195.212 114.022L185.553 127.787H195.212V114.022Z" fill="#4D4D4D"/>
<path fill-rule="evenodd" clip-rule="evenodd" d="M128.424 135.216H126.119V138.767C126.119 140.351 125.68 141.553 124.802 142.372C123.923 143.192 122.771 143.629 121.344 143.629C119.917 143.629 118.765 143.192 117.887 142.372C117.009 141.553 116.57 140.351 116.57 138.767V135.216H101.313C99.996 135.216 99.0082 134.834 98.2399 134.069C97.4716 133.304 97.0874 132.321 97.0874 131.174C97.0874 130.027 97.4716 128.825 98.2948 127.678L117.009 101.076C117.503 100.366 118.161 99.8193 118.875 99.4916C119.643 99.1638 120.411 98.9453 121.234 98.9453C122.551 98.9453 123.649 99.3823 124.637 100.202C125.625 101.076 126.064 102.223 126.064 103.752V127.787H128.369C131.497 127.787 133.033 128.989 133.033 131.447C133.033 133.96 131.497 135.216 128.424 135.216ZM116.57 114.022L106.966 127.787H116.57V114.022Z" fill="#4F6B78"/>
<path fill-rule="evenodd" clip-rule="evenodd" d="M137.643 121.233C137.643 113.968 139.07 108.341 141.869 104.463C144.668 100.585 148.784 98.6729 154.162 98.6729C159.54 98.6729 163.601 100.585 166.455 104.463C169.254 108.341 170.681 113.913 170.681 121.233C170.681 128.553 169.254 134.179 166.455 138.058C163.656 141.936 159.54 143.848 154.162 143.848C148.784 143.848 144.723 141.936 141.869 138.058C139.07 134.179 137.643 128.553 137.643 121.233ZM161.132 121.178C161.132 115.825 160.583 112.001 159.485 109.598C158.388 107.249 156.632 106.047 154.162 106.047C151.747 106.047 149.991 107.249 148.839 109.652C147.741 112.056 147.192 115.88 147.192 121.178C147.192 126.477 147.741 130.301 148.839 132.759C149.936 135.162 151.692 136.364 154.162 136.364C156.577 136.419 158.388 135.217 159.485 132.759C160.583 130.355 161.132 126.477 161.132 121.178Z" fill="#4F6B78"/>
<path fill-rule="evenodd" clip-rule="evenodd" d="M207.505 135.216H205.2V138.767C205.2 140.351 204.761 141.553 203.883 142.372C203.005 143.192 201.853 143.629 200.426 143.629C198.999 143.629 197.846 143.192 196.968 142.372C196.09 141.553 195.651 140.351 195.651 138.767V135.216H180.395C179.078 135.216 178.09 134.834 177.321 134.069C176.553 133.304 176.169 132.321 176.169 131.174C176.169 130.027 176.553 128.825 177.376 127.678L196.09 101.076C196.584 100.366 197.243 99.8193 197.956 99.4916C198.724 99.1638 199.493 98.9453 200.316 98.9453C201.633 98.9453 202.731 99.3823 203.718 100.202C204.706 101.076 205.145 102.223 205.145 103.752V127.787H207.45C210.578 127.787 212.115 128.989 212.115 131.447C212.115 133.96 210.578 135.216 207.505 135.216ZM195.651 114.022L186.047 127.787H195.651V114.022Z" fill="#4F6B78"/>
<path fill-rule="evenodd" clip-rule="evenodd" d="M125.46 135.216H123.155V138.767C123.155 140.351 122.716 141.553 121.838 142.372C120.96 143.192 119.807 143.629 118.381 143.629C116.954 143.629 115.801 143.192 114.923 142.372C114.045 141.553 113.606 140.351 113.606 138.767V135.216H98.3495C97.0324 135.216 96.0446 134.834 95.2763 134.069C94.5079 133.304 94.1238 132.321 94.1238 131.174C94.1238 130.027 94.5079 128.825 95.3311 127.678L114.045 101.076C114.539 100.366 115.198 99.8193 115.911 99.4916C116.679 99.1638 117.448 98.9453 118.271 98.9453C119.588 98.9453 120.685 99.3823 121.673 100.202C122.661 101.076 123.1 102.223 123.1 103.752V127.787H125.405C128.533 127.787 130.07 128.989 130.07 131.447C130.07 133.96 128.533 135.216 125.46 135.216ZM113.661 114.022L104.002 127.787H113.661V114.022Z" fill="#05375A"/>
<path fill-rule="evenodd" clip-rule="evenodd" d="M134.735 121.233C134.735 113.968 136.161 108.341 138.96 104.463C141.759 100.585 145.875 98.6729 151.253 98.6729C156.632 98.6729 160.693 100.585 163.546 104.463C166.345 108.341 167.772 113.913 167.772 121.233C167.772 128.553 166.345 134.179 163.546 138.058C160.747 141.936 156.632 143.848 151.253 143.848C145.875 143.848 141.814 141.936 138.96 138.058C136.161 134.179 134.735 128.553 134.735 121.233ZM158.223 121.178C158.223 115.825 157.674 112.001 156.577 109.598C155.479 107.249 153.723 106.047 151.253 106.047C148.839 106.047 147.083 107.249 145.93 109.652C144.832 112.056 144.284 115.88 144.284 121.178C144.284 126.477 144.832 130.301 145.93 132.759C147.028 135.162 148.784 136.364 151.253 136.364C153.668 136.419 155.424 135.217 156.577 132.759C157.674 130.355 158.223 126.477 158.223 121.178Z" fill="#05375A"/>
<path fill-rule="evenodd" clip-rule="evenodd" d="M204.596 135.216H202.291V138.767C202.291 140.351 201.852 141.553 200.974 142.372C200.096 143.192 198.944 143.629 197.517 143.629C196.09 143.629 194.937 143.192 194.059 142.372C193.181 141.553 192.742 140.351 192.742 138.767V135.216H177.486C176.169 135.216 175.181 134.834 174.412 134.069C173.644 133.304 173.26 132.321 173.26 131.174C173.26 130.027 173.644 128.825 174.467 127.678L193.181 101.021C193.675 100.311 194.334 99.7646 195.047 99.4369C195.815 99.1091 196.584 98.8906 197.407 98.8906C198.724 98.8906 199.822 99.3276 200.81 100.147C201.797 101.021 202.236 102.168 202.236 103.698V127.787H204.541C207.669 127.787 209.206 128.989 209.206 131.447C209.206 133.96 207.669 135.216 204.596 135.216ZM192.742 114.022L183.138 127.787H192.742V114.022Z" fill="#05375A"/>
<path d="M113.825 8.05035C72.556 21.9797 49.0127 64.2595 57.6287 105.665L57.7385 105.611C57.7385 105.665 57.7385 105.665 57.7934 105.72C61.6898 117.191 100.764 114.351 144.997 99.4381C189.23 84.5255 221.993 63.1124 218.096 51.6412C218.096 51.5865 218.042 51.5865 218.042 51.5319H218.096C199.657 13.4036 155.095 -5.87904 113.825 8.05035Z" fill="url(#paint0_linear_1_429)"/>
<path d="M110.752 0.456834C107.624 1.65859 105.868 5.20921 106.856 8.43209C107.24 9.7431 108.008 10.8356 108.996 11.655C110.094 12.5836 110.972 13.7854 111.411 15.151V15.2056C112.014 16.9536 113.88 17.8822 115.636 17.2814L117.612 16.6259C119.423 16.025 120.356 14.1131 119.752 12.3105C119.258 10.9448 119.258 9.41535 119.588 7.99509C119.862 6.84797 119.807 5.59159 119.423 4.44446C118.216 0.893834 114.319 -0.908793 110.752 0.456834Z" fill="#3B5059"/>
<path d="M222.267 69.4478C222.487 69.0654 222.981 68.9016 223.31 69.1747L230.609 74.3094C230.993 74.5826 230.993 75.1288 230.664 75.4566L214.365 88.5666C213.761 89.0582 212.938 88.4027 213.267 87.6926L222.267 69.4478Z" fill="#05375A"/>
<path d="M239.499 76.2768C239.884 76.0037 240.377 76.113 240.597 76.55L244.713 84.4706C244.932 84.9076 244.713 85.3992 244.219 85.5085L223.694 89.7692C222.871 89.8239 222.432 88.8406 223.09 88.4036L239.499 76.2768Z" fill="#05375A"/>
<path d="M236.81 92.9382C237.249 92.8289 237.688 93.1567 237.688 93.5937L237.963 98.8377C237.963 99.3293 237.579 99.6571 237.085 99.6024L225.011 96.9804C224.243 96.8166 224.243 95.7787 225.011 95.5602L236.81 92.9382Z" fill="#05375A"/>
<path d="M217.932 56.2846C181.163 87.5848 122.551 102.443 91.1603 99.056C69.0438 96.6525 63.7205 75.021 64.379 51.5322C56.4215 67.9197 53.6775 86.9293 57.6289 105.666L57.7386 105.611C57.7386 105.666 57.7386 105.666 57.7935 105.72C61.6899 117.246 100.764 114.406 144.997 99.493C183.852 86.383 213.816 68.3021 217.932 56.2846Z" fill="#DFE3E6"/>
<path d="M9.77393 112.166C21.2986 116.59 30.5184 123.145 36.5003 131.175L61.0314 164.169C61.5802 164.934 61.0863 165.917 59.9338 166.354L46.159 171.762C45.0066 172.199 43.5797 171.98 43.0309 171.215L0.224895 112.002C-0.762936 110.636 1.70664 109.052 3.6823 109.817L9.77393 112.166Z" fill="url(#paint1_linear_1_429)"/>
<path d="M75.355 189.297L59.2753 167.72L48.6835 171.926L46.0493 170.232V172.964L63.6656 196.616C65.4218 198.965 69.8121 199.73 73.4342 198.255C76.0684 197.217 77.605 195.305 77.605 193.448V190.771L75.355 189.297Z" fill="#041724"/>
<path d="M76.8916 188.586L59.2753 164.988L46.0493 170.178L63.6656 193.83C65.4218 196.179 69.8122 196.944 73.4342 195.469C77.1111 194.049 78.6478 190.935 76.8916 188.586Z" fill="#4F6B78"/>
<path d="M255.085 127.57C254.646 128.39 253.659 128.772 252.78 128.39C251.793 128.007 251.354 126.805 251.848 125.877L254.591 120.797C254.976 120.141 254.646 119.267 253.933 118.994C253.329 118.721 252.616 118.994 252.287 119.595L249.268 125.221C248.829 126.041 247.841 126.423 246.963 126.041C245.975 125.658 245.536 124.457 246.03 123.528L248.774 118.448C249.158 117.792 248.829 116.918 248.116 116.645C247.512 116.372 246.799 116.645 246.469 117.246L242.683 124.347L242.298 125.057L241.75 126.095C240.872 127.734 241.64 129.646 243.451 130.738L218.755 175.367C217.767 177.17 218.865 179.409 221.17 180.338C223.475 181.267 226.109 180.556 227.097 178.754L250.585 133.634C252.671 134.18 254.921 133.415 255.799 131.831L256.348 130.793L256.732 130.083L260.409 123.255C260.793 122.599 260.464 121.725 259.75 121.452C259.146 121.124 258.433 121.343 258.104 121.944L255.085 127.57Z" fill="url(#paint2_linear_1_429)"/>
<path opacity="0.3" d="M40.3966 136.418L36.5002 131.174C35.2928 129.59 33.9757 128.006 32.5489 126.531L9.44458 124.729L17.8411 136.418H40.3966Z" fill="#E5E5E5"/>
<path opacity="0.3" d="M23.1096 143.684L26.6768 148.6H49.4518L45.7749 143.684H23.1096Z" fill="#E5E5E5"/>
<defs>
<linearGradient id="paint0_linear_1_429" x1="55.8611" y1="3.52637" x2="55.8611" y2="112.767" gradientUnits="userSpaceOnUse">
<stop stop-color="white"/>
<stop offset="1" stop-color="#EAE7E7"/>
</linearGradient>
<linearGradient id="paint1_linear_1_429" x1="0" y1="109.617" x2="0" y2="171.984" gradientUnits="userSpaceOnUse">
<stop stop-color="#A2AFB5"/>
<stop offset="1" stop-color="#BEC8CC"/>
</linearGradient>
<linearGradient id="paint2_linear_1_429" x1="218.392" y1="116.539" x2="218.392" y2="180.746" gradientUnits="userSpaceOnUse">
<stop stop-color="#A2AFB5"/>
<stop offset="1" stop-color="#BEC8CC"/>
</linearGradient>
</defs>
</svg>
