<svg width="35" height="35" viewBox="0 0 35 35" fill="none" xmlns="http://www.w3.org/2000/svg">
<circle cx="17.71" cy="17.5118" r="16.25" fill="white" stroke="#E2E2E2"/>
<path d="M13.086 23.8399V17.2892L11.0544 15.4307L9.23267 14.3993V22.6839C9.23267 23.3235 9.7509 23.8399 10.3887 23.8399H13.086Z" fill="#4285F4"/>
<path d="M22.3337 23.8399H25.031C25.6707 23.8399 26.187 23.3216 26.187 22.6838V14.3994L24.1236 15.5807L22.3337 17.2892V23.8399Z" fill="#34A853"/>
<path d="M13.086 17.2892L12.8096 14.7297L13.086 12.28L17.7099 15.748L22.3338 12.28L22.6431 14.5975L22.3338 17.2892L17.7099 20.7572L13.086 17.2892Z" fill="#EA4335"/>
<path d="M22.3337 12.28V17.2892L26.187 14.3993V12.858C26.187 11.4284 24.5552 10.6135 23.4127 11.4708L22.3337 12.28Z" fill="#FBBC04"/>
<path d="M9.23267 14.3993L11.0049 15.7285L13.086 17.2892V12.28L12.007 11.4708C10.8625 10.6134 9.23267 11.4284 9.23267 12.8579V14.3992V14.3993Z" fill="#C5221F"/>
</svg>
