<svg width="331" height="329" viewBox="0 0 331 329" fill="none" xmlns="http://www.w3.org/2000/svg">
<g filter="url(#filter0_d_2_198)">
<path fill-rule="evenodd" clip-rule="evenodd" d="M238.193 25.9015C263.868 46.8999 280.25 78.791 280.25 114.5C280.25 119.352 279.947 124.134 279.36 128.828L128.637 202.607L237.773 26.5799L238.193 25.9015ZM266.77 168.392C247.453 204.46 209.348 229 165.5 229C158.935 229 152.499 228.45 146.236 227.393L266.77 168.392ZM92.9577 203.222C67.1966 182.225 50.75 150.279 50.75 114.5C50.75 96.7779 54.785 79.9962 61.9884 65.0197L194.274 39.8067L92.9577 203.222ZM88.7502 29.379C109.081 11.1153 135.99 0 165.5 0C179.554 0 193.017 2.52094 205.462 7.13436L88.7502 29.379Z" fill="white"/>
</g>
<defs>
<filter id="filter0_d_2_198" x="0.75" y="0" width="329.5" height="329" filterUnits="userSpaceOnUse" color-interpolation-filters="sRGB">
<feFlood flood-opacity="0" result="BackgroundImageFix"/>
<feColorMatrix in="SourceAlpha" type="matrix" values="0 0 0 0 0 0 0 0 0 0 0 0 0 0 0 0 0 0 127 0" result="hardAlpha"/>
<feOffset dy="50"/>
<feGaussianBlur stdDeviation="25"/>
<feComposite in2="hardAlpha" operator="out"/>
<feColorMatrix type="matrix" values="0 0 0 0 0 0 0 0 0 0 0 0 0 0 0 0 0 0 0.25 0"/>
<feBlend mode="normal" in2="BackgroundImageFix" result="effect1_dropShadow_2_198"/>
<feBlend mode="normal" in="SourceGraphic" in2="effect1_dropShadow_2_198" result="shape"/>
</filter>
</defs>
</svg>
