<svg width="20" height="19" viewBox="0 0 20 19" fill="none" xmlns="http://www.w3.org/2000/svg">
<path fill-rule="evenodd" clip-rule="evenodd" d="M20 8.76017V15.5967C20 17.4377 18.5076 18.93 16.6667 18.93H15.4444C14.8922 18.93 14.4444 18.4823 14.4444 17.93V17.7078C14.4444 17.1555 14.8922 16.7078 15.4444 16.7078H16.6667C17.2803 16.7078 17.7778 16.2104 17.7778 15.5967V8.76017C17.7778 8.41409 17.6165 8.08778 17.3416 7.87755L10.6749 2.77951C10.2765 2.47486 9.72345 2.47485 9.32506 2.77951L2.65839 7.87755C2.38348 8.08777 2.22222 8.41409 2.22222 8.76017V15.5967C2.22222 16.2104 2.71968 16.7078 3.33333 16.7078H4.55556C5.10784 16.7078 5.55556 17.1555 5.55556 17.7078V17.93C5.55556 18.4823 5.10784 18.93 4.55556 18.93H3.33333C1.49239 18.93 0 17.4377 0 15.5967V8.76017C0 7.72193 0.48377 6.74299 1.3085 6.11231L7.97517 1.01427C9.17036 0.100302 10.8297 0.100308 12.0248 1.01427L18.6915 6.11231C19.5162 6.74299 20 7.72194 20 8.76017ZM9.88889 9.15228H10.1111C11.768 9.15228 13.1111 10.4954 13.1111 12.1523V15.7078C13.1111 17.3647 11.768 18.7078 10.1111 18.7078H9.88889C8.23204 18.7078 6.88889 17.3647 6.88889 15.7078V12.1523C6.88889 10.4954 8.23204 9.15228 9.88889 9.15228ZM11.1111 12.1523C11.1111 11.6 10.6634 11.1523 10.1111 11.1523H9.88889C9.3366 11.1523 8.88889 11.6 8.88889 12.1523V15.7078C8.88889 16.2601 9.3366 16.7078 9.88889 16.7078H10.1111C10.6634 16.7078 11.1111 16.2601 11.1111 15.7078V12.1523Z" fill="white"/>
</svg>
