<svg width="245" height="244" viewBox="0 0 245 244" fill="none" xmlns="http://www.w3.org/2000/svg">
<g filter="url(#filter0_d_209_98)">
<path fill-rule="evenodd" clip-rule="evenodd" d="M76.84 16.336C60.7761 29.5353 50.53 49.5561 50.53 71.97C50.53 74.9892 50.7159 77.9649 51.0769 80.8864L145.399 127.158L77.088 16.7369L76.84 16.336ZM59.0455 105.959C71.1806 128.567 95.045 143.94 122.5 143.94C126.573 143.94 130.566 143.602 134.454 142.952L59.0455 105.959ZM168.065 127.682C184.184 114.483 194.47 94.4279 194.47 71.97C194.47 60.8626 191.954 50.3429 187.46 40.9498L104.62 25.1264L168.065 127.682ZM170.533 18.3729C157.793 6.94869 140.958 0 122.5 0C113.735 0 105.336 1.56686 97.5676 4.43577L170.533 18.3729Z" fill="white"/>
</g>
<defs>
<filter id="filter0_d_209_98" x="0.530029" y="0" width="243.94" height="243.94" filterUnits="userSpaceOnUse" color-interpolation-filters="sRGB">
<feFlood flood-opacity="0" result="BackgroundImageFix"/>
<feColorMatrix in="SourceAlpha" type="matrix" values="0 0 0 0 0 0 0 0 0 0 0 0 0 0 0 0 0 0 127 0" result="hardAlpha"/>
<feOffset dy="50"/>
<feGaussianBlur stdDeviation="25"/>
<feComposite in2="hardAlpha" operator="out"/>
<feColorMatrix type="matrix" values="0 0 0 0 0 0 0 0 0 0 0 0 0 0 0 0 0 0 0.25 0"/>
<feBlend mode="normal" in2="BackgroundImageFix" result="effect1_dropShadow_209_98"/>
<feBlend mode="normal" in="SourceGraphic" in2="effect1_dropShadow_209_98" result="shape"/>
</filter>
</defs>
</svg>
